<?xml version="1.0" encoding="UTF-8"?>
<!DOCTYPE svg PUBLIC "-//W3C//DTD SVG 1.0//EN" "http://www.w3.org/TR/2001/REC-SVG-20010904/DTD/svg10.dtd">
<!-- Creator: CorelDRAW 2021 (64 Bit) -->
<svg xmlns="http://www.w3.org/2000/svg" xml:space="preserve" width="210mm" height="297mm" version="1.0" style="shape-rendering:geometricPrecision; text-rendering:geometricPrecision; image-rendering:optimizeQuality; fill-rule:evenodd; clip-rule:evenodd"
viewBox="0 0 21000 29700"
 xmlns:xlink="http://www.w3.org/1999/xlink"
 xmlns:xodm="http://www.corel.com/coreldraw/odm/2003">
 <defs>
  <style type="text/css">
   <![CDATA[
    .fil0 {fill:aqua}
    .fil1 {fill:#1282C2}
    .fil2 {fill:#35B7B9}
    .fil3 {fill:#4EAE41}
    .fil4 {fill:#F39920}
   ]]>
  </style>
 </defs>
 <g id="Camada_x0020_1">
  <metadata id="CorelCorpID_0Corel-Layer"/>
  <path class="fil0" d="M11607.58 6890.65c685.92,71.96 1349.12,215.38 1981.15,422.24 -104.08,76.14 -210.47,150.37 -319.03,222.6 -523.93,-294.39 -1081.33,-512.72 -1662.12,-644.84zm885.08 1107.48c-318.11,168.8 -651.06,321.93 -997.39,457.79 -421.77,-626.92 -911.38,-1124.27 -1453.08,-1460.45 875.59,150.7 1703.64,496.07 2450.47,1002.66zm2271.17 -211.21c270.73,131.02 533.73,274.34 788.15,429.27 -137.97,269.58 -293.11,534.57 -464.67,793.55 -254.63,-284.66 -526.2,-546.4 -812.5,-782.9 170.32,-141.36 333.46,-288.15 489.02,-439.92zm-354.28 2115.02c-475.88,550.62 -1032.97,1061.56 -1664.55,1516.1 -166.86,-675.91 -382.59,-1301.94 -640.56,-1865.14 490.36,-213.67 951.35,-462.78 1378.88,-742.39 334.96,328.08 645.05,693.47 926.23,1091.43zm2013.12 -1084.44c1122.64,874.12 2023.73,1994.81 2610.6,3275.14 -396.43,882.09 -973.58,1695.08 -1698.68,2406.35 -143.14,-1729.21 -689.83,-3282.83 -1516.12,-4537.33 235.44,-371.17 437.49,-753.9 604.2,-1144.16zm-305.85 6684.01c-903.78,624.42 -1950.16,1120.2 -3102.29,1450.25 41.59,-331.1 73.71,-667.56 95.77,-1008.41 71.88,-1111.43 30.78,-2179.12 -106.79,-3171.3 795.28,-519.5 1484.55,-1125.65 2055.98,-1789.09 562.76,1108.23 927.57,2392.51 1029.3,3788.95 17.83,244.62 26.72,487.88 28.03,729.6zm3296.23 -2420.21c247.14,789.27 380.48,1624.97 380.48,2490.32 0,2304.69 -941.6,4400.53 -2479.43,5961.31 -617.38,54.99 -1247.88,19.58 -1876.07,-101.67 1078.64,-1442.81 1773.84,-3301.63 1909.4,-5314.6 937.74,-869.5 1647.69,-1902.73 2065.62,-3035.36zm-4935.24 8097.04c-750.2,-250.88 -1485.62,-623.55 -2179.12,-1110.33 170.16,-492.04 317.86,-1009.11 440.18,-1546.51 1204.58,-291.05 2304.08,-760.17 3259.3,-1367.61 -224.31,1490.84 -757.01,2870.52 -1520.36,4024.45zm2014.6 1092.77c-1507.12,1196.79 -3423.82,1944.86 -5521.93,2027.11 1437.45,-236.87 2731.86,-975.01 3774.52,-2052.31 587.02,85.15 1173.66,94.77 1747.41,25.2zm-5868.23 1971.18c-272.74,-25.43 -541.12,-69.52 -804.34,-131.05 783,-700.58 1479.07,-1702.65 2029.48,-2913.97 636.14,378.07 1299.72,663.86 1971.58,852.14 -881.09,1025.98 -1972.63,1795.16 -3196.72,2192.88zm-3707.86 -657.19c-3261.31,-1344.17 -5542.16,-4425.94 -5542.16,-8013.48 0,-122.23 2.69,-243.85 7.93,-364.86 450.1,526.87 969.6,1009.44 1546.89,1438.72 231.61,3128.37 1800.39,5699.92 3987.34,6939.62zm-5413.08 -9478.1c86.65,-486.61 216.08,-959.4 383.87,-1415.09 384.09,324.78 806.96,607.93 1260.7,847.82 -126.32,577.45 -206.81,1174.87 -235.89,1785.77 -515.48,-366.68 -987.66,-774.83 -1408.68,-1218.5zm580.21 -1901.4c428.6,-972.15 1037.3,-1855.11 1786.47,-2611.44 275.96,118.63 560.05,225.37 851.21,319.45 -601.35,854.56 -1076.48,1840.16 -1390.43,2909.81 -438.97,-170.37 -856.59,-376.83 -1247.25,-617.82zm2708.52 -3423.84c921.57,-707.72 1990.06,-1250.2 3155.38,-1579.82 -908.33,394.63 -1736.57,995.82 -2447.59,1753.39 -239.57,-49.8 -475.69,-107.7 -707.79,-173.57zm3783.59 -1377.36c-432.69,527.48 -781.92,1123.95 -1046.09,1768.88 -340.69,-3.58 -677.92,-23.34 -1010.35,-58.6 600.02,-697.54 1293.84,-1279.06 2056.44,-1710.28zm-1429.4 2977.93c-222.14,957.56 -281.18,1983.74 -172.29,3025.4 -861.53,31.9 -1705.14,-47.91 -2502.15,-233.51 266.07,-1089.49 697.34,-2102.2 1259.13,-2991.57 460.16,97.55 933.3,164.85 1415.31,199.68zm3.88 4123.31c207.49,955.77 556.44,1908.88 1050.56,2818.72 -1451.65,-174.44 -2820.1,-601.85 -4028.16,-1229.83l-0.5 -11.86c-22.83,-698.83 21.97,-1384.77 127.07,-2048.35 888.34,301.81 1854.03,461.75 2851.03,471.32zm2046.11 4335.24c578.85,737.19 1231.36,1365.33 1929.07,1876.6 -530.66,1305.64 -1224.93,2399.72 -2018.01,3180.21 -2408.56,-887.66 -4266.19,-3296.07 -4791.21,-6381.42 1439.84,757.34 3110.68,1228.68 4880.15,1324.61zm73.71 -11759.98c557,383.57 1055.17,940.71 1476.54,1635.1 -450.07,136.85 -919.19,245.6 -1404.91,323.1 -351.69,56.12 -702.3,94.39 -1050.33,115.4 222.02,-750.51 549.02,-1450.96 978.7,-2073.6zm2048.75 2775.14c260.71,630.65 471.13,1331.3 622.9,2085.85 -182.07,107.12 -369.28,209.7 -561.26,307.64 -1067.67,544.65 -2185.79,892.45 -3294.93,1055.69 -168.75,-983.87 -187.91,-1963.88 -61.59,-2895.82 524.44,-5.36 1056.3,-49.18 1590.75,-134.44 594.36,-94.86 1163.95,-236.36 1704.13,-418.92zm823.49 3421.58c85.85,841.71 103.79,1731.33 44.31,2650.97 -27.51,425.49 -70.72,844.03 -128.48,1253.91 -477.3,94.16 -969.62,160.78 -1474.69,197.48 -285.37,20.75 -569.17,31.02 -851.05,32.22 -17.64,-26.44 -35.16,-52.97 -52.61,-79.63 -600.96,-918.26 -1043.1,-1896.05 -1331.16,-2887.38 1232.07,-135.23 2483.67,-497.68 3672.62,-1104.23 40.73,-20.77 80.8,-42.15 121.06,-63.34zm-375.87 5436.14c-63.89,263.8 -133.93,522.45 -209.74,775.38 -241.34,-208.34 -475.74,-431.6 -701.87,-669.38 308.8,-24.45 612.98,-59.68 911.61,-106z"/>
  <path class="fil1" d="M6916.32 23585.1c-2186.95,-1239.7 -3755.73,-3811.25 -3987.34,-6939.62 -577.29,-429.28 -1096.79,-911.85 -1546.89,-1438.72 -5.24,121.01 -7.93,242.63 -7.93,364.86 0,3587.54 2280.85,6669.31 5542.16,8013.48z"/>
  <path class="fil1" d="M4316 17516.27c525.02,3085.35 2382.65,5493.76 4791.21,6381.42 793.08,-780.49 1487.35,-1874.57 2018.01,-3180.21 -697.71,-511.27 -1350.22,-1139.41 -1929.07,-1876.6 -1769.47,-95.93 -3440.31,-567.27 -4880.15,-1324.61z"/>
  <path class="fil1" d="M10854.62 18819.76c226.13,237.78 460.53,461.04 701.87,669.38 75.81,-252.93 145.85,-511.58 209.74,-775.38 -298.63,46.32 -602.81,81.55 -911.61,106z"/>
  <path class="fil1" d="M11849.32 21197.27c-550.41,1211.32 -1246.48,2213.39 -2029.48,2913.97 263.22,61.53 531.6,105.62 804.34,131.05 1224.09,-397.72 2315.63,-1166.9 3196.72,-2192.88 -671.86,-188.28 -1335.44,-474.07 -1971.58,-852.14z"/>
  <path class="fil1" d="M12298.69 20068.01c693.5,486.78 1428.92,859.45 2179.12,1110.33 763.35,-1153.93 1296.05,-2533.61 1520.36,-4024.45 -955.22,607.44 -2054.72,1076.56 -3259.3,1367.61 -122.32,537.4 -270.02,1054.47 -440.18,1546.51z"/>
  <path class="fil1" d="M17347.43 16116.66c-135.56,2012.97 -830.76,3871.79 -1909.4,5314.6 628.19,121.25 1258.69,156.66 1876.07,101.67 1537.83,-1560.78 2479.43,-3656.62 2479.43,-5961.31 0,-865.35 -133.34,-1701.05 -380.48,-2490.32 -417.93,1132.63 -1127.88,2165.86 -2065.62,3035.36z"/>
  <path class="fil1" d="M14745 22245.91c-1042.66,1077.3 -2337.07,1815.44 -3774.52,2052.31 2098.11,-82.25 4014.81,-830.32 5521.93,-2027.11 -573.75,69.57 -1160.39,59.95 -1747.41,-25.2z"/>
  <path class="fil2" d="M2911.92 15325.5c29.08,-610.9 109.57,-1208.32 235.89,-1785.77 -453.74,-239.89 -876.61,-523.04 -1260.7,-847.82 -167.79,455.69 -297.22,928.48 -383.87,1415.09 421.02,443.67 893.2,851.82 1408.68,1218.5z"/>
  <path class="fil2" d="M4299.01 14034.32c-105.1,663.58 -149.9,1349.52 -127.07,2048.35l0.5 11.86c1208.06,627.98 2576.51,1055.39 4028.16,1229.83 -494.12,-909.84 -843.07,-1862.95 -1050.56,-2818.72 -997,-9.57 -1962.69,-169.51 -2851.03,-471.32z"/>
  <path class="fil2" d="M8348.42 14445.19c288.06,991.33 730.2,1969.12 1331.16,2887.38 17.45,26.66 34.97,53.19 52.61,79.63 281.88,-1.2 565.68,-11.47 851.05,-32.22 505.07,-36.7 997.39,-103.32 1474.69,-197.48 57.76,-409.88 100.97,-828.42 128.48,-1253.91 59.48,-919.64 41.54,-1809.26 -44.31,-2650.97 -40.26,21.19 -80.33,42.57 -121.06,63.34 -1188.95,606.55 -2440.55,969 -3672.62,1104.23z"/>
  <path class="fil2" d="M13003.51 12772.05c137.57,992.18 178.67,2059.87 106.79,3171.3 -22.06,340.85 -54.18,677.31 -95.77,1008.41 1152.13,-330.05 2198.51,-825.83 3102.29,-1450.25 -1.31,-241.72 -10.2,-484.98 -28.03,-729.6 -101.73,-1396.44 -466.54,-2680.72 -1029.3,-3788.95 -571.43,663.44 -1260.7,1269.59 -2055.98,1789.09z"/>
  <path class="fil2" d="M15818.47 9961.66c826.29,1254.5 1372.98,2808.12 1516.12,4537.33 725.1,-711.27 1302.25,-1524.26 1698.68,-2406.35 -586.87,-1280.33 -1487.96,-2401.02 -2610.6,-3275.14 -166.71,390.26 -368.76,772.99 -604.2,1144.16z"/>
  <path class="fil3" d="M3330.7 12823.42c313.95,-1069.65 789.08,-2055.25 1390.43,-2909.81 -291.16,-94.08 -575.25,-200.82 -851.21,-319.45 -749.17,756.33 -1357.87,1639.29 -1786.47,2611.44 390.66,240.99 808.28,447.45 1247.25,617.82z"/>
  <path class="fil3" d="M5730.85 10182.65c-561.79,889.37 -993.06,1902.08 -1259.13,2991.57 797.01,185.6 1640.62,265.41 2502.15,233.51 -108.89,-1041.66 -49.85,-2067.84 172.29,-3025.4 -482.01,-34.83 -955.15,-102.13 -1415.31,-199.68z"/>
  <path class="fil3" d="M8023.73 10409.4c-126.32,931.94 -107.16,1911.95 61.59,2895.82 1109.14,-163.24 2227.26,-511.04 3294.93,-1055.69 191.98,-97.94 379.19,-200.52 561.26,-307.64 -151.77,-754.55 -362.19,-1455.2 -622.9,-2085.85 -540.18,182.56 -1109.77,324.06 -1704.13,418.92 -534.45,85.26 -1066.31,129.08 -1590.75,134.44z"/>
  <path class="fil3" d="M12104.44 9552.9c257.97,563.2 473.7,1189.23 640.56,1865.14 631.58,-454.54 1188.67,-965.48 1664.55,-1516.1 -281.18,-397.96 -591.27,-763.35 -926.23,-1091.43 -427.53,279.61 -888.52,528.72 -1378.88,742.39z"/>
  <path class="fil3" d="M14274.81 8226.84c286.3,236.5 557.87,498.24 812.5,782.9 171.56,-258.98 326.7,-523.97 464.67,-793.55 -254.42,-154.93 -517.42,-298.25 -788.15,-429.27 -155.56,151.77 -318.7,298.56 -489.02,439.92z"/>
  <path class="fil4" d="M5499.76 8955.33c711.02,-757.57 1539.26,-1358.76 2447.59,-1753.39 -1165.32,329.62 -2233.81,872.1 -3155.38,1579.82 232.1,65.87 468.22,123.77 707.79,173.57z"/>
  <path class="fil4" d="M8575.56 7404.4c-762.6,431.22 -1456.42,1012.74 -2056.44,1710.28 332.43,35.26 669.66,55.02 1010.35,58.6 264.17,-644.93 613.4,-1241.4 1046.09,-1768.88z"/>
  <path class="fil4" d="M9269.86 7080.9c-429.68,622.64 -756.68,1323.09 -978.7,2073.6 348.03,-21.01 698.64,-59.28 1050.33,-115.4 485.72,-77.5 954.84,-186.25 1404.91,-323.1 -421.37,-694.39 -919.54,-1251.53 -1476.54,-1635.1z"/>
  <path class="fil4" d="M10042.19 6995.47c541.7,336.18 1031.31,833.53 1453.08,1460.45 346.33,-135.86 679.28,-288.99 997.39,-457.79 -746.83,-506.59 -1574.88,-851.96 -2450.47,-1002.66z"/>
  <path class="fil4" d="M11607.58 6890.65c580.79,132.12 1138.19,350.45 1662.12,644.84 108.56,-72.23 214.95,-146.46 319.03,-222.6 -632.03,-206.86 -1295.23,-350.28 -1981.15,-422.24z"/>
 </g>
</svg>
